# xmcd CD database file generated by LOLA_Freedb v0.9beta0
# 
# Track frame offsets:
#      150
#      13794
#      29535
#      42408
#      57504
#      68559
#      91658
# 
# Disc length: 1223 seconds
# 
# Revision: 0 
# Processed by: cddbd v1.5.2PL0 Copyright (c) Steve Scherf et al.
# Submitted via: LOLA_Freedb v0.9beta0
# 
DISCID=5504c507
DTITLE=James Last - In The Mood For Trumpeds
DYEAR=1977
DGENRE=
TTITLE0=James Last - In The Mood
TTITLE1=James Last - Tuxedo Junction
TTITLE2=James Last - A String Of Pearls
TTITLE3=James Last - I Know Why
TTITLE4=James Last - Chattanooga Choo Choo
TTITLE5=James Last - Moonlight Serenade
TTITLE6=
EXTD=von LP
EXTT0=
EXTT1=
EXTT2=
EXTT3=
EXTT4=
EXTT5=
EXTT6=
PLAYORDER=
